<?xml version="1.0" standalone="no"?>
<!DOCTYPE svg PUBLIC "-//W3C//DTD SVG 20010904//EN"
 "http://www.w3.org/TR/2001/REC-SVG-20010904/DTD/svg10.dtd">
<svg version="1.0" xmlns="http://www.w3.org/2000/svg"
 width="842.000000pt" height="842.000000pt" viewBox="0 0 842.000000 842.000000"
 preserveAspectRatio="xMidYMid meet">
<metadata>
Created by potrace 1.14, written by Peter Selinger 2001-2017
</metadata>
<g transform="translate(0.000000,842.000000) scale(0.100000,-0.100000)"
fill="#000000" stroke="none">
<path d="M0 6516 l0 -1904 77 -7 c102 -9 121 -18 139 -61 31 -74 -11 -113 -85
-79 -21 9 -55 17 -75 18 -20 1 -36 5 -36 9 0 4 -4 8 -10 8 -7 0 -10 -757 -10
-2250 l0 -2250 4210 0 4210 0 0 2135 0 2135 -23 -4 c-33 -6 -49 7 -45 35 2 19
10 25 36 27 l32 3 0 660 c0 643 0 659 -20 679 -21 21 -17 50 6 50 12 0 14 203
14 1350 l0 1350 -4210 0 -4210 0 0 -1904z m4280 724 c5 8 10 12 10 8 0 -3 3
-15 6 -25 5 -15 4 -15 -5 -3 -6 8 -11 10 -11 4 0 -20 -26 -11 -28 10 -1 17 1
18 8 6 9 -13 11 -13 20 0z m65 -10 c3 -6 -1 -7 -9 -4 -18 7 -21 14 -7 14 6 0
13 -4 16 -10z m-45 -120 c0 -4 -6 -10 -14 -13 -24 -9 -8 -47 19 -45 13 1 23 5
23 8 -2 19 5 19 22 -1 10 -13 19 -18 20 -11 0 6 5 12 11 12 5 0 8 -4 5 -9 -3
-5 2 -12 11 -15 15 -6 15 -8 3 -16 -17 -11 -10 -13 40 -12 16 1 19 -1 8 -4
-10 -3 -18 -15 -18 -27 0 -16 3 -18 9 -8 7 11 11 10 20 -5 6 -11 11 -13 11 -6
0 6 6 12 14 12 8 0 17 -6 20 -12 5 -10 7 -10 12 0 10 22 24 2 18 -26 -4 -21
-3 -24 5 -12 9 12 11 11 11 -9 0 -18 4 -22 20 -18 11 3 20 1 20 -4 0 -5 -7 -9
-16 -9 -8 0 -12 -4 -9 -10 7 -12 3 -12 -19 -4 -9 3 -14 9 -12 13 2 3 -6 6 -19
6 -14 0 -21 -5 -18 -12 3 -7 12 -13 21 -13 8 0 12 -3 9 -6 -9 -10 -68 17 -61
27 3 5 -4 9 -16 9 -14 0 -19 -4 -14 -12 4 -7 -9 2 -29 21 -20 19 -33 39 -30
44 3 6 1 7 -5 3 -7 -4 -12 -4 -12 1 0 4 -34 24 -75 43 -52 24 -74 40 -75 53 0
10 -4 15 -10 12 -5 -3 -10 -1 -10 4 0 6 5 11 10 11 6 0 11 8 11 18 1 15 2 14
6 -2 4 -15 7 -16 13 -5 14 22 21 4 10 -25 -6 -18 -6 -25 0 -21 6 3 10 13 10
21 0 8 5 14 10 14 7 0 7 6 0 19 -14 27 -13 29 15 29 14 0 25 -4 25 -8z m-3
-42 c-3 -8 -6 -5 -6 6 -1 11 2 17 5 13 3 -3 4 -12 1 -19z m-127 -79 c24 -14
-7 -11 -65 6 l-50 15 50 -6 c28 -3 57 -10 65 -15z m-260 1 c0 -5 -7 -7 -15 -4
-8 4 -15 8 -15 10 0 2 7 4 15 4 8 0 15 -4 15 -10z m255 -29 c-3 -5 -1 -12 5
-16 5 -3 10 -15 10 -25 0 -13 5 -17 15 -14 10 4 15 0 15 -11 0 -12 -5 -15 -20
-10 -11 4 -32 8 -48 10 -15 2 -28 4 -29 6 -2 1 -9 2 -15 3 -18 3 -11 25 15 47
23 19 63 26 52 10z m-63 -116 c0 -5 -5 -11 -11 -13 -6 -2 -11 4 -11 13 0 9 5
15 11 13 6 -2 11 -8 11 -13z m-636 -57 c-22 -13 -20 -28 5 -28 11 0 17 5 14
10 -3 6 1 10 9 10 18 0 30 -17 17 -25 -5 -3 -8 -13 -6 -23 18 -84 18 -85 4
-78 -8 3 -21 9 -30 12 -10 3 -19 22 -23 45 -4 25 -12 39 -21 39 -8 0 -15 5
-15 12 0 20 31 47 47 41 13 -5 13 -7 -1 -15z m964 6 c0 -17 -22 -14 -28 4 -2
7 3 12 12 12 9 0 16 -7 16 -16z m-74 -52 c-18 -16 -18 -16 -6 6 6 13 14 21 18
18 3 -4 -2 -14 -12 -24z m291 -57 c1 -5 -2 -17 -7 -25 -8 -13 -11 -13 -26 2
-9 9 -13 21 -9 28 8 13 37 10 42 -5z m-671 -41 c18 -14 18 -14 -6 -3 -31 14
-36 19 -24 19 6 0 19 -7 30 -16z m69 -24 c13 -6 15 -9 5 -9 -8 0 -22 4 -30 9
-18 12 -2 12 25 0z m-5 -40 c0 -5 -5 -10 -11 -10 -5 0 -7 5 -4 10 3 6 8 10 11
10 2 0 4 -4 4 -10z m93 -45 c-3 -14 -9 -25 -14 -25 -20 0 -24 2 -21 12 1 5 -2
7 -8 3 -7 -4 -7 -12 0 -25 15 -29 13 -32 -24 -26 -19 3 -38 1 -41 -4 -4 -6
-10 -8 -14 -5 -5 2 -21 -8 -36 -23 -19 -18 -26 -21 -22 -9 4 9 2 29 -3 43 -7
17 -7 23 0 19 6 -3 10 -1 10 5 0 18 27 40 42 35 8 -3 24 4 36 15 18 17 22 18
22 5 0 -22 31 -18 37 5 8 31 42 8 36 -25z m247 -65 c0 -23 -8 -29 -30 -23 -11
3 -17 10 -13 16 4 6 0 8 -9 4 -12 -4 -14 -1 -11 13 10 36 63 28 63 -10z m-269
-37 c13 -16 12 -17 -3 -4 -10 7 -18 15 -18 17 0 8 8 3 21 -13z m-73 -225 c9
-9 15 -9 23 -1 7 7 21 8 39 3 16 -5 31 -6 34 -2 3 3 6 0 6 -6 0 -7 13 -12 28
-12 16 0 37 -9 47 -20 9 -10 20 -18 24 -18 13 4 51 -14 51 -23 0 -5 7 -9 15
-9 9 0 15 -9 15 -21 0 -18 -4 -20 -27 -14 -31 7 -83 29 -125 51 -14 8 -33 14
-41 14 -9 0 -23 7 -32 16 -8 9 -22 13 -30 10 -8 -3 -18 1 -22 9 -5 7 -12 14
-18 14 -5 0 -11 4 -13 10 -5 15 11 14 26 -1z m-783 -108 c15 -16 15 -22 5 -35
-15 -18 -49 -19 -72 -1 -24 18 -23 31 5 44 32 16 42 14 62 -8z m-177 -22 c-2
-17 -11 -24 -30 -26 -24 -3 -28 0 -28 22 0 22 4 26 31 26 26 0 30 -3 27 -22z
m-167 -12 c5 3 9 0 9 -5 0 -13 -27 -15 -34 -2 -3 4 -2 11 2 15 3 4 8 2 10 -3
2 -6 8 -9 13 -5z m699 -320 c0 -3 -4 -8 -10 -11 -5 -3 -10 -1 -10 4 0 6 5 11
10 11 6 0 10 -2 10 -4z m3820 -241 c-6 -8 -9 -19 -5 -25 3 -5 1 -10 -4 -10
-12 0 -15 33 -4 43 13 14 25 7 13 -8z m-96 -207 c8 -14 6 -22 -10 -39 -25 -25
-60 -19 -69 12 -14 44 54 67 79 27z m-1595 -32 c9 -11 7 -15 -13 -18 -26 -5
-71 14 -60 25 12 12 61 8 73 -7z m1051 -5 c0 -6 -4 -13 -10 -16 -5 -3 -10 1
-10 9 0 9 5 16 10 16 6 0 10 -4 10 -9z m1090 -31 c0 -5 -6 -10 -14 -10 -8 0
-18 5 -21 10 -3 6 3 10 14 10 12 0 21 -4 21 -10z m-2476 -6 c13 -5 14 -9 5
-20 -13 -16 -55 -19 -64 -4 -15 24 21 39 59 24z m2287 -30 c10 -13 10 -17 -1
-24 -18 -11 -30 -3 -30 21 0 23 13 25 31 3z m-283 -21 c22 -41 -24 -83 -56
-51 -13 13 -16 50 -5 61 13 14 52 7 61 -10z m-242 -48 c9 -21 -14 -45 -43 -45
-25 0 -39 20 -29 45 7 20 65 20 72 0z m-128 -33 c16 -9 22 -22 22 -46 0 -28
-5 -36 -30 -46 -26 -11 -37 -10 -68 3 -57 25 -136 32 -154 14 -9 -9 -25 -13
-41 -10 -15 3 -35 -2 -48 -10 -20 -14 -26 -14 -58 -1 -47 20 -48 21 -22 45 19
18 60 27 86 18 6 -2 23 5 39 16 47 31 228 42 274 17z m-6368 -114 c0 -15 -40
-48 -59 -48 -45 0 -54 56 -12 76 20 10 28 10 47 -4 13 -9 24 -20 24 -24z
m6378 -40 c28 -28 1 -75 -37 -63 -11 3 -23 15 -26 26 -12 38 35 65 63 37z
m962 -118 c0 -43 -33 -58 -54 -25 -20 31 -20 45 1 60 26 19 53 1 53 -35z
m-324 9 c24 -27 8 -54 -32 -54 -25 0 -30 4 -32 29 -6 46 32 61 64 25z m-6523
-14 c20 -8 61 -16 93 -18 58 -4 88 -24 78 -52 -8 -21 -29 -25 -68 -13 -26 8
-42 8 -59 0 -42 -20 -67 -23 -102 -12 -28 9 -38 8 -60 -6 -25 -16 -27 -16 -53
3 -34 25 -39 49 -16 74 20 22 36 24 64 7 16 -11 23 -9 40 10 24 26 36 27 83 7z
m406 -6 c36 -34 24 -53 -39 -60 -30 -4 -64 -10 -76 -14 -23 -7 -54 16 -54 40
0 18 39 45 56 38 7 -2 21 0 31 6 28 16 57 13 82 -10z m5731 6 c9 -10 17 -12
30 -5 32 17 152 22 180 8 28 -15 39 -56 18 -73 -7 -6 -20 -24 -29 -40 -12 -24
-21 -29 -45 -27 -16 2 -41 3 -56 2 -16 0 -45 -1 -65 -1 -21 -1 -51 2 -66 6
-20 5 -33 3 -47 -10 -26 -23 -72 -22 -116 4 -24 14 -53 21 -88 21 -28 0 -57 5
-64 12 -18 18 -14 46 7 58 26 13 94 13 125 -1 22 -11 28 -8 51 19 27 32 44 38
111 41 26 0 46 -5 54 -14z m-6553 -17 c11 -13 23 -34 26 -47 5 -21 3 -23 -25
-17 -17 3 -39 6 -49 6 -26 0 -43 35 -29 60 14 27 52 25 77 -2z m-526 -31 c-1
-4 -1 -14 -1 -22 0 -17 -26 -20 -35 -5 -8 13 14 42 27 38 5 -2 9 -7 9 -11z
m8172 -5 c15 -16 15 -20 1 -40 -18 -26 -31 -28 -56 -5 -23 21 -23 50 0 56 32
9 39 7 55 -11z m-8061 -17 c14 -32 5 -41 -30 -29 -16 6 -28 18 -30 32 -5 33
44 31 60 -3z m620 -74 c7 -10 27 -25 44 -34 29 -15 44 -35 44 -57 0 -16 -62
-20 -89 -5 -14 8 -38 19 -54 25 -34 12 -43 33 -29 66 14 30 64 33 84 5z m-552
-44 c37 -4 88 -34 95 -56 3 -10 14 -26 25 -36 24 -22 26 -61 4 -69 -23 -9 -54
2 -54 20 0 10 -14 14 -58 14 -55 0 -59 2 -100 45 -47 50 -49 57 -25 80 12 12
26 15 52 10 20 -3 47 -7 61 -8z m1094 -24 c8 -19 -14 -37 -28 -23 -10 10 -1
40 13 40 5 0 12 -8 15 -17z m6840 1 c9 -8 16 -22 16 -29 0 -13 -26 -45 -36
-45 -19 0 -44 24 -44 43 0 43 35 60 64 31z m-6914 -11 c-1 -50 -53 -59 -58
-10 -3 24 0 27 27 27 23 0 31 -5 31 -17z m5600 -34 c0 -11 -4 -18 -10 -14 -5
3 -7 12 -3 20 7 21 13 19 13 -6z m-6352 -25 c25 -7 29 -36 7 -54 -18 -15 -70
0 -71 21 -1 33 21 44 64 33z m6460 0 c23 -7 30 -28 12 -39 -18 -11 -50 6 -50
26 0 21 3 22 38 13z m575 -8 c9 -7 17 -18 17 -23 0 -13 -62 -26 -84 -17 -23 9
-20 34 4 34 11 0 20 5 20 10 0 14 22 12 43 -4z m-201 -14 c7 -7 20 -12 30 -12
19 0 26 -34 8 -45 -18 -11 -226 -16 -253 -6 -28 11 -38 49 -14 55 6 2 26 8 42
14 39 13 172 9 187 -6z m476 -28 c27 -19 28 -50 2 -64 -42 -22 -82 34 -48 68
15 15 19 15 46 -4z m-7478 -144 c0 -5 -10 -10 -22 -10 -19 0 -20 2 -8 10 19
13 30 13 30 0z m569 -84 c30 -1 47 -7 55 -18 17 -28 -5 -53 -47 -53 -23 0 -44
-8 -59 -22 -44 -41 -66 -29 -87 46 -17 58 0 74 57 59 20 -6 57 -11 81 -12z
m6411 -80 c0 -2 3 -11 6 -19 7 -20 -22 -46 -46 -40 -19 5 -28 42 -13 56 7 8
53 10 53 3z m-2200 -36 c0 -5 -4 -10 -10 -10 -5 0 -10 5 -10 10 0 6 5 10 10
10 6 0 10 -4 10 -10z m760 -5 c0 -8 -7 -15 -15 -15 -8 0 -15 7 -15 15 0 8 7
15 15 15 8 0 15 -7 15 -15z m1028 -177 c14 -14 -2 -48 -23 -48 -17 0 -24 31
-10 47 13 16 18 16 33 1z m-1519 -342 c15 -18 3 -46 -20 -46 -22 0 -34 22 -25
45 7 19 30 19 45 1z m653 -73 c-6 -2 -10 -9 -6 -14 8 -13 -6 -69 -17 -69 -12
0 -11 47 1 71 6 10 16 19 23 18 9 0 9 -2 -1 -6z m-187 -33 c0 -18 -5 -24 -17
-22 -11 2 -18 -3 -18 -14 0 -11 -5 -14 -16 -10 -12 4 -15 2 -10 -9 3 -8 1 -15
-4 -15 -6 0 -10 9 -10 19 0 11 -3 26 -6 34 -8 22 25 49 55 45 20 -2 26 -8 26
-28z m45 1 c0 -12 -20 -25 -27 -18 -7 7 6 27 18 27 5 0 9 -4 9 -9z m-70 -120
c7 -13 7 -22 0 -26 -5 -3 -10 -17 -10 -31 0 -28 -3 -29 -35 -8 -28 18 -23 38
7 28 18 -5 19 -3 13 25 -7 35 8 43 25 12z m527 -48 c-3 -10 -5 -4 -5 12 0 17
2 24 5 18 2 -7 2 -21 0 -30z m-553 -80 c-9 -50 -13 -55 -28 -41 -11 11 -10 15
3 25 12 9 13 12 2 13 -10 0 -11 3 -2 13 6 8 8 17 4 20 -3 4 1 7 11 7 14 0 16
-6 10 -37z m210 5 c-4 -18 -6 -45 -6 -60 0 -15 -7 -32 -16 -39 -14 -11 -15
-11 -4 1 6 8 12 18 12 22 0 4 -6 7 -12 6 -16 -4 -14 65 2 70 5 2 10 10 10 18
0 8 5 14 11 14 7 0 8 -11 3 -32z m166 -218 c0 -5 -4 -10 -10 -10 -5 0 -10 5
-10 10 0 6 5 10 10 10 6 0 10 -4 10 -10z m-50 -9 c0 -6 -4 -13 -10 -16 -5 -3
-10 1 -10 9 0 9 5 16 10 16 6 0 10 -4 10 -9z m428 -19 c4 -28 -24 -41 -44 -20
-20 20 -7 50 20 46 13 -2 22 -12 24 -26z m-408 -58 c0 -8 -5 -12 -10 -9 -6 4
-8 11 -5 16 9 14 15 11 15 -7z m60 -185 c0 -5 -4 -9 -10 -9 -5 0 -10 7 -10 16
0 8 5 12 10 9 6 -3 10 -10 10 -16z m-440 1 c26 -14 15 -47 -15 -47 -15 0 -25
7 -29 20 -9 36 8 46 44 27z m438 -68 c4 -28 -24 -41 -44 -20 -20 20 -7 50 20
46 13 -2 22 -12 24 -26z m-218 -1 c0 -5 -9 -11 -20 -14 -11 -3 -20 -1 -20 3 0
5 8 11 18 13 9 3 18 5 20 6 1 0 2 -3 2 -8z m285 -96 c0 -28 -31 -43 -51 -23
-24 24 -3 61 29 49 12 -5 22 -16 22 -26z m-4375 -2266 c0 -11 -7 -27 -15 -35
-17 -17 -19 -7 -9 34 8 28 24 29 24 1z m75 -39 c3 -5 -1 -10 -9 -10 -9 0 -16
5 -16 10 0 6 4 10 9 10 6 0 13 -4 16 -10z"/>
<path d="M4411 6974 c0 -11 3 -14 6 -6 3 7 2 16 -1 19 -3 4 -6 -2 -5 -13z"/>
<path d="M4514 6935 c-3 -8 -4 -20 -2 -27 3 -7 7 -1 10 15 6 29 1 36 -8 12z"/>
<path d="M4408 6923 c7 -3 16 -2 19 1 4 3 -2 6 -13 5 -11 0 -14 -3 -6 -6z"/>
</g>
</svg>
